<?xml version="1.0" encoding="utf-8"?>
<!-- Generator: Adobe Illustrator 19.0.0, SVG Export Plug-In . SVG Version: 6.00 Build 0)  -->
<svg version="1.1" id="Layer_1" xmlns="http://www.w3.org/2000/svg" xmlns:xlink="http://www.w3.org/1999/xlink" x="0px" y="0px"
	 viewBox="0 0 771.9 416" style="enable-background:new 0 0 771.9 416;" xml:space="preserve">
<style type="text/css">
	.st0{fill:#FFFFFF;}
</style>
<g>
	<g>
		<path class="st0" d="M298,396.6v-25.7c0.3-1.6,1.2-2.5,2.5-2.5h0.3c1.4,0,2.2,0.8,2.5,2.5v33.4c0,1.5-0.9,2.4-2.8,2.7
			c-1.1,0-2.4-1.2-4.1-3.7l-19-24.3v25.3c0,1.4-0.9,2.2-2.6,2.5h-0.1c-1.4,0-2.3-0.9-2.6-2.6v-33c0.2-1.9,1-2.9,2.4-2.9h0.4
			c1.2,0,2.1,0.8,2.8,2.3C278.6,371.8,285.4,380.4,298,396.6z"/>
		<path class="st0" d="M326.8,404.2c-2.1,2-4.9,3-8.3,3h-0.8c-4.8,0-8.7-2.4-11.9-7.2c-1.2-2.3-1.7-4.6-1.7-7
			c0-5.2,2.6-9.4,7.7-12.4c2.2-1,4.3-1.5,6.4-1.5c5.3,0,9.5,2.6,12.6,7.8c1,2.1,1.4,4.3,1.4,6.6v11.2c0,1.4-0.8,2.2-2.5,2.5h-0.2
			c-1.2,0-2-0.7-2.6-2.1v-0.3L326.8,404.2z M309.4,392.9v0.3c0,3.5,1.8,6.2,5.3,8c1.1,0.4,2.1,0.6,3,0.6h0.8c2.9,0,5.4-1.5,7.3-4.4
			c0.7-1.4,1-2.7,1-4V393c0-3.4-1.7-6-5.1-7.8c-1.2-0.5-2.4-0.8-3.6-0.8H318c-3.6,0-6.3,1.9-8.1,5.6
			C309.5,391.1,309.4,392.1,309.4,392.9z"/>
		<path class="st0" d="M341.3,369.5h0.4c1.6,0.3,2.4,1.1,2.4,2.3v7.8h3.1l0.9-0.1c1.3,0,2.2,0.9,2.6,2.6c0,1.3-0.8,2.2-2.3,2.8
			l-1.6-0.1h-2.7V398c0,2.1,0.6,3.3,1.8,3.7l2,0.2h1c1.3,0,2.1,0.8,2.4,2.5v0.2c-0.3,1.7-1.2,2.5-2.6,2.5h-2c-3.4,0-5.8-1.8-7.5-5.4
			c-0.3-0.9-0.4-2-0.4-3.1v-13.8h-1.1l-1.7,0.1c-1.5-0.5-2.3-1.5-2.3-2.7c0.3-1.7,0.9-2.5,1.7-2.5v-0.2l1.8,0.2h1.5v-7.3
			C339.1,370.5,339.9,369.5,341.3,369.5z"/>
		<path class="st0" d="M374.3,404.3c-2.4,1.9-5.1,2.9-8.1,2.9h-0.7c-4.3,0-8-2.1-11.1-6.3c-1.5-2.3-2.2-5-2.2-8.3v-10.7
			c0.2-2,1.1-3,2.8-3c1.7,0.4,2.5,1.2,2.5,2.4v10.4c0,4.1,1.1,6.9,3.4,8.3c1.5,1.1,3.1,1.7,4.9,1.7c3.4,0,6-1.8,7.8-5.3
			c0.4-1.2,0.5-2.3,0.5-3.5v-11.4c0.3-1.8,1.3-2.6,2.8-2.6c1.7,0.4,2.5,1.3,2.5,2.6v23.1c0,1.3-0.8,2.1-2.5,2.4h-0.3
			c-1.7-0.3-2.5-1.2-2.5-2.6V404.3z"/>
		<path class="st0" d="M385.3,378.8c1.7,0.4,2.5,1.2,2.5,2.4v0.4c2.1-1.9,4.9-2.9,8.4-2.9c1.8,0,3.9,0.5,6,1.4
			c0.7,0.8,1.1,1.5,1.1,2.2v0.2c-0.3,1.7-1.2,2.5-2.6,2.5h-0.2c-1.8-0.6-3.1-0.9-3.9-0.9H396c-3.5,0-6,1.8-7.7,5.4
			c-0.3,1-0.5,2.1-0.5,3.3v11.5c0,1.4-0.9,2.2-2.6,2.5h-0.2c-1.4,0-2.3-0.9-2.6-2.6v-22.7C382.7,379.8,383.6,378.8,385.3,378.8z"/>
		<path class="st0" d="M425.3,404.2c-2.1,2-4.9,3-8.3,3h-0.8c-4.8,0-8.7-2.4-11.9-7.2c-1.2-2.3-1.7-4.6-1.7-7
			c0-5.2,2.6-9.4,7.7-12.4c2.2-1,4.3-1.5,6.4-1.5c5.3,0,9.5,2.6,12.6,7.8c0.9,2.1,1.4,4.3,1.4,6.6v11.2c0,1.4-0.8,2.2-2.5,2.5h-0.2
			c-1.2,0-2-0.7-2.6-2.1v-0.3L425.3,404.2z M407.9,392.9v0.3c0,3.5,1.8,6.2,5.3,8c1.1,0.4,2.1,0.6,3,0.6h0.8c2.9,0,5.4-1.5,7.3-4.4
			c0.7-1.4,1-2.7,1-4V393c0-3.4-1.7-6-5.1-7.8c-1.2-0.5-2.4-0.8-3.6-0.8h-0.1c-3.6,0-6.3,1.9-8.1,5.6
			C408,391.1,407.9,392.1,407.9,392.9z"/>
		<path class="st0" d="M436.5,368.6h0.5c1.6,0.3,2.5,1.1,2.5,2.3v30.8h1.3c1.3,0,2.1,0.9,2.4,2.6v0.2c-0.3,1.7-1.2,2.6-2.6,2.6h-3.8
			c-1.4,0-2.3-0.9-2.6-2.6v-33C434.2,369.5,435.1,368.6,436.5,368.6z"/>
		<path class="st0" d="M447.4,368.6h0.5c1.6,0.3,2.5,1.1,2.5,2.3v30.8h1.3c1.3,0,2.1,0.9,2.4,2.6v0.2c-0.3,1.7-1.2,2.6-2.6,2.6h-3.8
			c-1.4,0-2.3-0.9-2.6-2.6v-33C445.2,369.5,446,368.6,447.4,368.6z"/>
		<path class="st0" d="M466,396.4c4.3-10.5,6.6-15.9,7-16.3c0.6-0.5,1.2-0.8,1.9-0.8c1.7,0.3,2.5,1.1,2.5,2.5v0.2
			c-0.1,0.5-3.1,7.9-9,22c-2.8,7-4.4,10.8-4.9,11.3c-0.4,0.3-1,0.6-1.7,0.8c-1.7-0.4-2.6-1.2-2.6-2.4v-0.4c0-0.3,1.3-3.7,4-10.2
			l-8.6-20.9v-0.3c0.3-1.7,1.2-2.5,2.6-2.5c1.4,0,2.5,1.4,3.3,4.1C463.4,390.1,465.2,394.4,466,396.4z"/>
		<path class="st0" d="M490.6,368l1.3,0.3h4.9l1.1-0.1c5.8,0,10.9,2.5,15.2,7.6c2.7,3.6,4.1,7.6,4.1,12.1c0,6.2-2.7,11.4-8.2,15.7
			c-3.5,2.4-7.1,3.6-11,3.6h-6.8c-1.7-0.3-2.6-1.2-2.6-2.6v-33.6c0.3-1.7,0.9-2.6,1.9-2.6V368z M494.1,373.6v28.1h3.4
			c5.9,0,10.3-2.9,13.1-8.6c0.7-1.9,1.1-3.8,1.1-5.6c0-4.3-1.9-8-5.7-11.2c-2.3-1.8-5.8-2.8-10.5-2.8H494.1z"/>
		<path class="st0" d="M530.9,379c5.4,0,9.6,2.6,12.6,7.7c1,2,1.6,4.2,1.6,6.6v0.6c-0.3,1.8-1.2,2.6-2.6,2.6H523
			c0.5,1.7,1.9,3.2,4.2,4.4c1.4,0.5,2.6,0.8,3.8,0.8c1.4,0,3-0.5,5-1.5h0.8c1.6,0.3,2.4,1.2,2.4,2.5v0.3c0,2-2.6,3.4-7.7,4.1h-0.7
			c-5,0-9.1-2.4-12.1-7.1c-1.2-2.2-1.8-4.6-1.8-7c0-5.1,2.4-9.2,7.3-12.3C526.6,379.6,528.8,379,530.9,379z M522.6,391.1h17
			c0-0.6-0.7-1.9-2.2-3.9c-1.9-1.8-3.8-2.7-5.7-2.7h-1.1c-2.8,0-5.2,1.4-7,4.2C523,389.8,522.6,390.6,522.6,391.1z"/>
		<path class="st0" d="M549.1,368.6h0.5c1.6,0.3,2.5,1.1,2.5,2.3v30.8h1.3c1.3,0,2.1,0.9,2.4,2.6v0.2c-0.3,1.7-1.2,2.6-2.6,2.6h-3.8
			c-1.4,0-2.3-0.9-2.6-2.6v-33C546.8,369.5,547.7,368.6,549.1,368.6z"/>
		<path class="st0" d="M561.4,372.2c1.7,0.4,2.6,1.2,2.6,2.4v0.6c0,1.4-0.9,2.2-2.8,2.4c-1.3,0-2.2-0.9-2.6-2.7
			C558.9,373.1,559.8,372.2,561.4,372.2z M561.4,378.9c1.7,0.4,2.6,1.2,2.6,2.4v23.3c0,1.4-0.9,2.2-2.6,2.5h-0.2
			c-1.4,0-2.3-0.9-2.6-2.6v-22.7C558.8,379.9,559.7,378.9,561.4,378.9z"/>
		<path class="st0" d="M579.8,379c3.6,0,6.9,1.4,10,4.1c0.3,0.5,0.4,1,0.4,1.5v0.2c-0.3,1.7-1.2,2.5-2.6,2.5h-0.1
			c-0.6,0-1.8-0.6-3.5-1.9c-1.3-0.7-2.6-1-3.9-1h-0.6c-3.4,0-6,1.8-7.8,5.4c-0.4,1.2-0.6,2.3-0.6,3.3c0,3.5,1.8,6.2,5.5,8
			c1.1,0.4,2.2,0.6,3.5,0.6c2,0,4.1-0.9,6.2-2.7l1.1-0.2h0.4c1.4,0,2.2,0.8,2.5,2.5v0.2c0,1.7-2.3,3.4-6.8,5.1
			c-1.5,0.3-2.6,0.4-3.3,0.4h-0.8c-3.8,0-7.3-1.8-10.6-5.3c-2-2.8-3-5.7-3-8.7c0-4.6,2-8.4,6.1-11.5C574.4,379.8,577,379,579.8,379z
			"/>
		<path class="st0" d="M595.8,372.2c1.7,0.4,2.6,1.2,2.6,2.4v0.6c0,1.4-0.9,2.2-2.8,2.4c-1.3,0-2.2-0.9-2.6-2.7
			C593.4,373.1,594.3,372.2,595.8,372.2z M595.8,378.9c1.7,0.4,2.6,1.2,2.6,2.4v23.3c0,1.4-0.9,2.2-2.6,2.5h-0.2
			c-1.4,0-2.3-0.9-2.6-2.6v-22.7C593.2,379.9,594.2,378.9,595.8,378.9z"/>
		<path class="st0" d="M614.2,379.2c3.6,0,6.9,1.4,9.8,4.1c2.8,2.9,4.2,6.2,4.2,9.9c0,5.2-2.5,9.3-7.4,12.3
			c-2.2,1.1-4.3,1.6-6.3,1.6h-0.8c-3.8,0-7.3-1.8-10.5-5.3c-2-2.8-3-5.7-3-8.7c0-4.5,2-8.3,6-11.4
			C608.8,380,611.4,379.2,614.2,379.2z M605.6,392.9v0.5c0,3.2,1.6,5.7,4.7,7.5c1.1,0.6,2.3,0.9,3.6,0.9h0.6c3.3,0,5.9-1.7,7.7-5.2
			c0.4-1.1,0.6-2.1,0.6-3.2v-0.5c0-2.7-1.2-4.9-3.7-6.8c-1.4-1-3.1-1.5-5-1.5c-3.6,0-6.3,1.9-8,5.8
			C605.8,391.2,605.6,392.1,605.6,392.9z"/>
		<path class="st0" d="M651.5,404.3c-2.4,1.9-5.1,2.9-8.1,2.9h-0.7c-4.3,0-8-2.1-11.1-6.3c-1.5-2.3-2.2-5-2.2-8.3v-10.7
			c0.2-2,1.1-3,2.8-3c1.7,0.4,2.5,1.2,2.5,2.4v10.4c0,4.1,1.1,6.9,3.4,8.3c1.5,1.1,3.1,1.7,4.9,1.7c3.4,0,6-1.8,7.8-5.3
			c0.4-1.2,0.5-2.3,0.5-3.5v-11.4c0.3-1.8,1.3-2.6,2.8-2.6c1.7,0.4,2.5,1.3,2.5,2.6v23.1c0,1.3-0.8,2.1-2.5,2.4h-0.3
			c-1.7-0.3-2.5-1.2-2.5-2.6V404.3z"/>
		<path class="st0" d="M675.4,397.9c0-0.3-0.4-0.6-1.1-0.6c-8.7-2-13.4-3.2-14-3.7c-1.8-1.3-2.7-3-2.7-5c0-2.7,1.9-5.3,5.6-7.7
			c2.1-1.1,4.1-1.6,6.1-1.6c4.7,0,8.5,2.2,11.2,6.6l0.1,1v0.2c0,1.5-0.9,2.3-2.6,2.6c-1.2,0-2.3-0.8-3.3-2.5
			c-1.6-1.5-3.4-2.3-5.4-2.3c-2.7,0-4.7,1.2-6.2,3.7l-0.1,0.3c0,0.3,0.7,0.6,2.2,0.7c7.4,1.8,11.5,2.8,12.3,3.1
			c2.1,1.4,3.2,3.2,3.2,5.3v0.1c0,3-2.1,5.6-6.3,8c-1.8,0.8-3.7,1.2-5.7,1.2c-4.1,0-7.6-1.9-10.5-5.8c-0.4-0.5-0.5-1-0.5-1.5v-0.6
			c0-1.4,0.9-2.2,2.9-2.4c0.9,0,2,0.9,3.2,2.7c1.5,1.4,3.3,2.1,5.3,2.1c2.4,0,4.4-1.1,6-3.4L675.4,397.9z"/>
	</g>
	<polygon class="st0" points="436.5,257.1 502.5,257.1 469.6,178.6 	"/>
	<g>
		<polygon class="st0" points="637.2,305.9 658.1,305.9 647.7,281.1 		"/>
		<path class="st0" d="M167.1,136.9v212.3h604.8V136.9H167.1z M609.6,159.1h55.3v11.2h-42v30.1h40.4v11.2h-40.4V245h42v11.3h-55.3
			V159.1z M286.8,329.7h-87.6V159.1h17.1v155.1h70.5V329.7z M385,174.6h-76.1v61.5h73.5v15.4h-73.5v62.7H385v15.4h-93.1V159.1H385
			V174.6z M533.8,329.7l-24.6-57.2h-79.6l-24.6,57.1l-18.3,0l73.5-170.5H479l50.7,118l22.6,52.6L533.8,329.7z M520.3,159.1h15
			l21,65.6l6,19.2l6.1-19.2l21.1-65.6h14.1l-33,97.3h-17.9L520.3,159.1z M611.7,325.5c-4.5,2.7-9.3,4.1-14.4,4.1
			c-7.9,0-14.6-2.7-20-8c-5.4-5.3-8.2-12-8.2-19.9c0-7.6,2.7-14.1,8.1-19.5c5.4-5.4,12-8.1,19.6-8.1c5.1,0,10.1,1.3,15,4
			c4.9,2.7,8.2,6.2,9.8,10.6h-6c-1.9-3-4.6-5.3-8-7c-3.4-1.7-7-2.5-10.8-2.5c-6.1,0-11.3,2.2-15.8,6.7c-4.5,4.5-6.7,9.7-6.7,15.7
			c0,6.2,2.3,11.6,6.8,16.1c4.5,4.5,9.9,6.7,16,6.7c3.6,0,7.1-0.9,10.5-2.6c3.3-1.8,6.1-4.1,8.2-7.1h6
			C619.6,319.1,616.2,322.7,611.7,325.5z M667.9,328.7l-7.7-18h-25.1l-7.8,18l-5.8,0l23.2-53.7h6l16,37.2l7.1,16.6L667.9,328.7z
			 M701.6,279.9h-21.9v19.5h21.1v4.9h-21.1v24.5h-5.4V275h27.2V279.9z M735.9,279.9h-24v19.4h23.2v4.9h-23.2v19.8h24v4.9h-29.3V275
			h29.3V279.9z M740.6,242.1c-1.9,3.5-4.5,6.4-7.9,8.7c-3.4,2.3-7.4,4-12.2,5.2c-4.7,1.1-10,1.7-15.7,1.7c-2.6,0-5.1-0.1-7.7-0.3
			c-2.6-0.2-5-0.4-7.4-0.7c-2.4-0.3-4.6-0.6-6.7-1c-2.1-0.4-4-0.8-5.7-1.3v-12.8c3.7,1.4,7.9,2.5,12.5,3.3c4.6,0.8,9.9,1.2,15.8,1.2
			c4.3,0,7.9-0.3,10.9-1c3-0.7,5.5-1.7,7.4-3c1.9-1.3,3.3-2.9,4.2-4.8c0.9-1.9,1.3-4,1.3-6.5c0-2.6-0.7-4.9-2.2-6.7
			c-1.5-1.9-3.4-3.5-5.8-5c-2.4-1.5-5.1-2.8-8.1-4c-3-1.2-6.2-2.5-9.3-3.8c-3.2-1.3-6.3-2.7-9.3-4.2c-3-1.5-5.8-3.3-8.1-5.4
			c-2.4-2.1-4.3-4.5-5.8-7.3c-1.5-2.8-2.2-6.1-2.2-9.9c0-3.3,0.7-6.6,2.1-9.8c1.4-3.2,3.5-6.1,6.5-8.6c2.9-2.5,6.7-4.5,11.3-6.1
			c4.6-1.5,10.1-2.3,16.4-2.3c1.6,0,3.4,0.1,5.3,0.2c1.9,0.2,3.8,0.4,5.8,0.6c2,0.3,3.9,0.6,5.8,0.9c1.9,0.3,3.7,0.7,5.3,1.1v11.9
			c-3.8-1.1-7.6-1.9-11.5-2.5c-3.8-0.6-7.5-0.9-11.1-0.9c-7.6,0-13.2,1.3-16.7,3.8c-3.6,2.5-5.4,5.9-5.4,10.2c0,2.6,0.7,4.9,2.2,6.8
			c1.5,1.9,3.4,3.6,5.8,5.1c2.4,1.5,5.1,2.8,8.1,4.1c3.1,1.2,6.2,2.5,9.3,3.8c3.2,1.3,6.3,2.7,9.3,4.2c3.1,1.5,5.8,3.4,8.1,5.5
			c2.4,2.1,4.3,4.6,5.8,7.4c1.5,2.8,2.2,6.2,2.2,10C743.5,234.6,742.5,238.7,740.6,242.1z"/>
	</g>
	<path class="st0" d="M179.5,58.5c-25.1,28.4-5,48.2-5,48.2s2.1-7.9,13.5-18.2c6.4-5.8,18.6-12.8,24.5-15.3
		c17.8-7.6,27.4-17,27.4-17l14-13.7l0,0.1c-0.7,2.1-5,13.9-17.6,26c0,0-0.1,0.1-0.1,0.1c-0.3,0.3-0.6,0.6-0.9,0.9
		c-4.1,3.7-8.4,6-8.4,6l0,0c-6.8,3.7-19.5,10.9-28.6,17.6c-1.7,1.2-3.6,2.7-5.7,4.5c-0.4,0.4-0.8,0.7-1.2,1.1c0,0-0.1,0.1-0.1,0.1
		c0,0-0.1,0.1-0.1,0.1c0,0,0,0,0,0c-2.3,2.2-4.8,4.9-7.4,8.2c-3.1,3.9-5.3,11.3-7.2,13.7c-4.4,5.6-8.6,8.7-8.6,8.7
		c9.7-1.5,17.2-12.7,17.2-12.7c27.8,7.5,49.5-11,49.5-11C279.6,70,280.2-0.1,280.2-0.1C244.5,41.7,205.2,29.5,179.5,58.5z"/>
	<g>
		<path class="st0" d="M0,182v-45h160.5v33.9L63,415.9H11.2L109,182.7V182H0z"/>
	</g>
</g>
</svg>
